<svg version="1.1" id="Capa_1" xmlns="http://www.w3.org/2000/svg" xmlns:xlink="http://www.w3.org/1999/xlink" x="0px" y="0px" viewBox="0 0 512 512" style="enable-background:new 0 0 512 512;" xml:space="preserve">
<g>
	<g>
		<path style="fill:#FFE177;" d="M484.197,480.283H27.803c-11.213,0-20.303-9.09-20.303-20.303V240.815h497V459.98&#10;&#9;&#9;&#9;C504.5,471.193,495.41,480.283,484.197,480.283z"/>
		<path style="fill:#FFD15B;" d="M465.431,240.815V459.98c0,11.213-9.09,20.303-20.303,20.303h39.069&#10;&#9;&#9;&#9;c11.213,0,20.303-9.09,20.303-20.303V240.815H465.431z"/>
		<path style="fill:#EEF5F6;" d="M484.197,150.229H27.803c-11.213,0-20.303,9.09-20.303,20.303v70.283h497v-70.283&#10;&#9;&#9;&#9;C504.5,159.319,495.41,150.229,484.197,150.229z"/>
		<path style="fill:#DEECF1;" d="M484.197,150.229h-39.069c11.213,0,20.303,9.09,20.303,20.303v70.283H504.5v-70.283&#10;&#9;&#9;&#9;C504.5,159.319,495.41,150.229,484.197,150.229z"/>
		<rect x="34.5" y="177.227" style="fill:#FFD15B;" width="443" height="36.59"/>
		<rect x="34.5" y="177.227" style="fill:#FFD15B;" width="443" height="36.59"/>
		<rect x="465.431" y="177.227" style="fill:#FFC344;" width="12.069" height="36.59"/>
		<g>
			<polygon style="fill:#7CA1B1;" points="436.35,177.227 425.06,213.817 376.83,213.817 388.11,177.227 &#9;&#9;&#9;"/>
			<polygon style="fill:#7CA1B1;" points="335.96,177.227 324.67,213.817 276.44,213.817 287.72,177.227 &#9;&#9;&#9;"/>
			<polygon style="fill:#7CA1B1;" points="235.56,177.227 224.28,213.817 176.04,213.817 187.33,177.227 &#9;&#9;&#9;"/>
			<polygon style="fill:#7CA1B1;" points="135.17,177.227 123.89,213.817 75.65,213.817 86.94,177.227 &#9;&#9;&#9;"/>
		</g>
		<circle style="fill:#A8D3D8;" cx="256" cy="51.028" r="19.311"/>
	</g>
	<g>
		<path style="fill:none;stroke:#000000;stroke-width:15;stroke-linecap:round;stroke-linejoin:round;stroke-miterlimit:10;" d="&#10;&#9;&#9;&#9;M417.356,480.283H27.803c-11.213,0-20.303-9.09-20.303-20.303V240.815h497V459.98c0,11.213-9.09,20.303-20.303,20.303h-31.825"/>
		<path style="fill:none;stroke:#000000;stroke-width:15;stroke-linecap:round;stroke-linejoin:round;stroke-miterlimit:10;" d="&#10;&#9;&#9;&#9;M68.978,150.229H27.803c-11.213,0-20.303,9.09-20.303,20.303v70.283h497v-70.283c0-11.213-9.09-20.303-20.303-20.303H104.051"/>
		
			<rect x="34.5" y="177.227" style="fill:none;stroke:#000000;stroke-width:15;stroke-linecap:round;stroke-linejoin:round;stroke-miterlimit:10;" width="443" height="36.59"/>
		<g>
			
				<polygon style="fill:none;stroke:#000000;stroke-width:15;stroke-linecap:round;stroke-linejoin:round;stroke-miterlimit:10;" points="&#10;&#9;&#9;&#9;&#9;436.35,177.227 425.06,213.817 376.83,213.817 388.11,177.227 &#9;&#9;&#9;"/>
			
				<polygon style="fill:none;stroke:#000000;stroke-width:15;stroke-linecap:round;stroke-linejoin:round;stroke-miterlimit:10;" points="&#10;&#9;&#9;&#9;&#9;335.96,177.227 324.67,213.817 276.44,213.817 287.72,177.227 &#9;&#9;&#9;"/>
			
				<polygon style="fill:none;stroke:#000000;stroke-width:15;stroke-linecap:round;stroke-linejoin:round;stroke-miterlimit:10;" points="&#10;&#9;&#9;&#9;&#9;235.56,177.227 224.28,213.817 176.04,213.817 187.33,177.227 &#9;&#9;&#9;"/>
			
				<polygon style="fill:none;stroke:#000000;stroke-width:15;stroke-linecap:round;stroke-linejoin:round;stroke-miterlimit:10;" points="&#10;&#9;&#9;&#9;&#9;135.17,177.227 123.89,213.817 75.65,213.817 86.94,177.227 &#9;&#9;&#9;"/>
		</g>
		
			<circle style="fill:none;stroke:#000000;stroke-width:15;stroke-linecap:round;stroke-linejoin:round;stroke-miterlimit:10;" cx="256" cy="51.028" r="19.311"/>
		<path style="fill:none;stroke:#000000;stroke-width:15;stroke-linecap:round;stroke-linejoin:round;stroke-miterlimit:10;" d="&#10;&#9;&#9;&#9;M256,31.717L256,31.717c-11.514,0-22.632,4.209-31.259,11.835l-120.69,106.678"/>
		<path style="fill:none;stroke:#000000;stroke-width:15;stroke-linecap:round;stroke-linejoin:round;stroke-miterlimit:10;" d="&#10;&#9;&#9;&#9;M256,31.717L256,31.717c11.514,0,22.632,4.209,31.259,11.835l120.69,106.678"/>
		<g>
			<g>
				<g>
					
						<line style="fill:none;stroke:#000000;stroke-width:15;stroke-linecap:round;stroke-linejoin:round;stroke-miterlimit:10;" x1="287.101" y1="286.875" x2="287.101" y2="334.532"/>
					
						<polyline style="fill:none;stroke:#000000;stroke-width:15;stroke-linecap:round;stroke-linejoin:round;stroke-miterlimit:10;" points="&#10;&#9;&#9;&#9;&#9;&#9;&#9;312.737,287.477 288.626,309.639 314.428,334.532 &#9;&#9;&#9;&#9;&#9;"/>
				</g>
				<g>
					<path style="fill:none;stroke:#000000;stroke-width:15;stroke-linecap:round;stroke-linejoin:round;stroke-miterlimit:10;" d="&#10;&#9;&#9;&#9;&#9;&#9;&#9;M87.889,286.875l9.285,46.941c0.341,0.961,1.704,0.952,2.032-0.014l14.498-46.84"/>
					<path style="fill:none;stroke:#000000;stroke-width:15;stroke-linecap:round;stroke-linejoin:round;stroke-miterlimit:10;" d="&#10;&#9;&#9;&#9;&#9;&#9;&#9;M113.704,286.875l14.461,46.941c0.341,0.961,1.704,0.952,2.032-0.014l9.322-46.84"/>
				</g>
				
					<circle style="fill:none;stroke:#000000;stroke-width:15;stroke-linecap:round;stroke-linejoin:round;stroke-miterlimit:10;" cx="185.336" cy="311.786" r="23.828"/>
				<g>
					
						<line style="fill:none;stroke:#000000;stroke-width:15;stroke-linecap:round;stroke-linejoin:round;stroke-miterlimit:10;" x1="241.364" y1="311.786" x2="261.383" y2="334.532"/>
					
						<line style="fill:none;stroke:#000000;stroke-width:15;stroke-linecap:round;stroke-linejoin:round;stroke-miterlimit:10;" x1="235.617" y1="286.875" x2="235.617" y2="334.532"/>
					<path style="fill:none;stroke:#000000;stroke-width:15;stroke-linecap:round;stroke-linejoin:round;stroke-miterlimit:10;" d="&#10;&#9;&#9;&#9;&#9;&#9;&#9;M261.383,299.261c0,6.84-5.998,12.385-13.086,12.385c-3.515,0-12.576,0.055-12.576,0.055s-0.057-8.992-0.057-12.44&#10;&#9;&#9;&#9;&#9;&#9;&#9;c0-2.832-0.032-12.385-0.032-12.385s8.51,0,12.664,0C255.385,286.875,261.383,292.42,261.383,299.261z"/>
				</g>
			</g>
			<g>
				<g>
					<path style="fill:none;stroke:#000000;stroke-width:15;stroke-linecap:round;stroke-linejoin:round;stroke-miterlimit:10;" d="&#10;&#9;&#9;&#9;&#9;&#9;&#9;M389.462,335.427v-49.354l33.368,48.319c0.619,0.894,1.281,0.456,1.281-0.631l-0.462-47.78"/>
				</g>
				<g>
					
						<line style="fill:none;stroke:#000000;stroke-width:15;stroke-linecap:round;stroke-linejoin:round;stroke-miterlimit:10;" x1="358.936" y1="285.98" x2="358.936" y2="335.427"/>
				</g>
			</g>
		</g>
		<g>
			<g>
				<path style="fill:none;stroke:#000000;stroke-width:15;stroke-linecap:round;stroke-linejoin:round;stroke-miterlimit:10;" d="&#10;&#9;&#9;&#9;&#9;&#9;M252.64,375.685c-3.765-2.543-8.303-4.028-13.188-4.028c-13.027,0-23.588,10.561-23.588,23.588s10.561,23.588,23.588,23.588&#10;&#9;&#9;&#9;&#9;&#9;c13.027,0,20.362-10.561,20.362-23.588h-14.112"/>
			</g>
			<g>
				<path style="fill:none;stroke:#000000;stroke-width:15;stroke-linecap:round;stroke-linejoin:round;stroke-miterlimit:10;" d="&#10;&#9;&#9;&#9;&#9;&#9;M418.377,376.506c0,0-8.465-7.116-18.448-4.109c-9.166,2.761-10.448,13.33-3.817,17.653c0,0,6.507,2.903,13.724,5.565&#10;&#9;&#9;&#9;&#9;&#9;c17.373,6.408,9.889,23.216-4.096,23.216c-7.004,0-12.882-3.067-16.44-6.993"/>
			</g>
			<g>
				<path style="fill:none;stroke:#000000;stroke-width:15;stroke-linecap:round;stroke-linejoin:round;stroke-miterlimit:10;" d="&#10;&#9;&#9;&#9;&#9;&#9;M475.941,376.506c0,0-8.465-7.116-18.447-4.109c-9.166,2.761-10.448,13.33-3.817,17.653c0,0,6.507,2.903,13.724,5.565&#10;&#9;&#9;&#9;&#9;&#9;c17.373,6.408,9.889,23.216-4.096,23.216c-7.004,0-12.882-3.067-16.44-6.993"/>
			</g>
			<g>
				
					<line style="fill:none;stroke:#000000;stroke-width:15;stroke-linecap:round;stroke-linejoin:round;stroke-miterlimit:10;" x1="34.5" y1="371.656" x2="34.5" y2="418.832"/>
				<path style="fill:none;stroke:#000000;stroke-width:15;stroke-linecap:round;stroke-linejoin:round;stroke-miterlimit:10;" d="&#10;&#9;&#9;&#9;&#9;&#9;M61.209,384.969c0,7.352-6.221,13.313-13.574,13.313c-3.646,0-13.044,0.059-13.044,0.059s-0.059-9.666-0.059-13.372&#10;&#9;&#9;&#9;&#9;&#9;c0-3.044-0.033-13.313-0.033-13.313s8.827,0,13.136,0C54.988,371.656,61.209,377.617,61.209,384.969z"/>
			</g>
			
				<circle style="fill:none;stroke:#000000;stroke-width:15;stroke-linecap:round;stroke-linejoin:round;stroke-miterlimit:10;" cx="164.317" cy="398.317" r="23.588"/>
			<g>
				
					<line style="fill:none;stroke:#000000;stroke-width:15;stroke-linecap:round;stroke-linejoin:round;stroke-miterlimit:10;" x1="95.268" y1="396.316" x2="115.084" y2="418.832"/>
				
					<line style="fill:none;stroke:#000000;stroke-width:15;stroke-linecap:round;stroke-linejoin:round;stroke-miterlimit:10;" x1="89.579" y1="371.656" x2="89.579" y2="418.832"/>
				<path style="fill:none;stroke:#000000;stroke-width:15;stroke-linecap:round;stroke-linejoin:round;stroke-miterlimit:10;" d="&#10;&#9;&#9;&#9;&#9;&#9;M115.084,383.917c0,6.771-5.937,12.26-12.954,12.26c-3.48,0-12.449,0.054-12.449,0.054s-0.056-8.901-0.056-12.314&#10;&#9;&#9;&#9;&#9;&#9;c0-2.803-0.031-12.26-0.031-12.26s8.424,0,12.536,0C109.147,371.656,115.084,377.145,115.084,383.917z"/>
			</g>
			<g>
				
					<line style="fill:none;stroke:#000000;stroke-width:15;stroke-linecap:round;stroke-linejoin:round;stroke-miterlimit:10;" x1="294.284" y1="396.316" x2="314.101" y2="418.832"/>
				
					<line style="fill:none;stroke:#000000;stroke-width:15;stroke-linecap:round;stroke-linejoin:round;stroke-miterlimit:10;" x1="288.596" y1="371.656" x2="288.596" y2="418.832"/>
				<path style="fill:none;stroke:#000000;stroke-width:15;stroke-linecap:round;stroke-linejoin:round;stroke-miterlimit:10;" d="&#10;&#9;&#9;&#9;&#9;&#9;M314.101,383.917c0,6.771-5.937,12.26-12.954,12.26c-3.48,0-12.449,0.054-12.449,0.054s-0.056-8.901-0.056-12.314&#10;&#9;&#9;&#9;&#9;&#9;c0-2.803-0.031-12.26-0.031-12.26s8.424,0,12.536,0C308.164,371.656,314.101,377.145,314.101,383.917z"/>
			</g>
			<g>
				
					<polyline style="fill:none;stroke:#000000;stroke-width:15;stroke-linecap:round;stroke-linejoin:round;stroke-miterlimit:10;" points="&#10;&#9;&#9;&#9;&#9;&#9;362.239,372.944 342.542,372.944 342.542,419.688 362.239,419.688 &#9;&#9;&#9;&#9;"/>
				
					<line style="fill:none;stroke:#000000;stroke-width:15;stroke-linecap:round;stroke-linejoin:round;stroke-miterlimit:10;" x1="360.786" y1="396.316" x2="342.542" y2="396.316"/>
			</g>
		</g>
	</g>
</g>
<g>
</g>
<g>
</g>
<g>
</g>
<g>
</g>
<g>
</g>
<g>
</g>
<g>
</g>
<g>
</g>
<g>
</g>
<g>
</g>
<g>
</g>
<g>
</g>
<g>
</g>
<g>
</g>
<g>
</g>
</svg>